# xmcd
#
# Track frame offsets: 
#        150
#        11773
#        28704
#        44179
#        67335
#        84109
#        96439
#        115005
#        128450
#        147439
#        165003
#        181427
#        193359
#
# Disc length: 2806 seconds
#
# Revision: 2
# Processed by: cddbd v1.5.1PL2 Copyright (c) Steve Scherf et al.
# Submitted via: ExactAudioCopy v0.90b4
#
DISCID=b40af40d
DTITLE=Buckskin Stallion - Blue Ribbon Buzz
DYEAR=2004
DGENRE=
TTITLE0=Christ on a Crutch
TTITLE1=Blue Ribbon Buzz
TTITLE2=Jack of Diamonds
TTITLE3=New Town
TTITLE4=Mama Does Her Best
TTITLE5=Home in the Pines
TTITLE6=Pretty Peggy-O
TTITLE7=Won't Hurt Me
TTITLE8=Writing on the Wall
TTITLE9=Aces Backed by 8's
TTITLE10=W.W.W.D.
TTITLE11=P.I. Jubilee
TTITLE12=She Gone
EXTD=
EXTT0=
EXTT1=
EXTT2=
EXTT3=
EXTT4=
EXTT5=
EXTT6=
EXTT7=
EXTT8=
EXTT9=
EXTT10=
EXTT11=
EXTT12=
PLAYORDER=
